<svg width="26" height="26" viewBox="0 0 26 26" fill="none" xmlns="http://www.w3.org/2000/svg">
<path d="M20.6042 18.1042C21.2083 17.0521 21.5938 15.7813 21.1354 14.3021C20.5833 12.5104 19.0104 11.125 17.1354 10.9479C16.4401 10.8737 15.737 10.9561 15.0777 11.1889C14.4183 11.4218 13.8195 11.7993 13.325 12.2938C12.8306 12.7882 12.4531 13.3871 12.2202 14.0464C11.9873 14.7058 11.9049 15.4089 11.9792 16.1042C12.1667 17.9688 13.5417 19.5521 15.3333 20.1042C16.8229 20.5625 18.0833 20.1771 19.1354 19.5729L21.7396 22.1771C22.1458 22.5833 22.7917 22.5833 23.1979 22.1771C23.2944 22.0817 23.371 21.9682 23.4233 21.843C23.4756 21.7179 23.5025 21.5836 23.5025 21.4479C23.5025 21.3123 23.4756 21.178 23.4233 21.0528C23.371 20.9276 23.2944 20.8141 23.1979 20.7188L20.6042 18.1042ZM16.6458 18.2083C15.1875 18.2083 14.0417 17.0625 14.0417 15.6042C14.0417 14.1458 15.1875 13 16.6458 13C18.1042 13 19.25 14.1458 19.25 15.6042C19.25 17.0625 18.1042 18.2083 16.6458 18.2083ZM13 21.3333V23.4167C7.25 23.4167 2.58333 18.75 2.58333 13C2.58333 7.25 7.25 2.58333 13 2.58333C18.0417 2.58333 22.2396 6.16667 23.2083 10.9167H21.0521C20.7272 9.65816 20.1124 8.49311 19.2569 7.5146C18.4014 6.53609 17.3289 5.77127 16.125 5.28125V5.70833C16.125 6.85417 15.1875 7.79167 14.0417 7.79167H11.9583V9.875C11.9583 10.4479 11.4896 10.9167 10.9167 10.9167H8.83333V13H10.9167V16.125H9.875L4.88542 11.1354C4.75 11.7396 4.66667 12.3542 4.66667 13C4.66667 17.5938 8.40625 21.3333 13 21.3333Z" fill="#337AB7"/>
</svg>
