<svg width="26" height="26" viewBox="0 0 26 26" fill="none" xmlns="http://www.w3.org/2000/svg">
<path d="M13 4.66667H5.70834C4.87954 4.66667 4.08469 4.99591 3.49863 5.58196C2.91258 6.16801 2.58334 6.96287 2.58334 7.79167V16.125C2.58334 16.9538 2.91258 17.7487 3.49863 18.3347C4.08469 18.9208 4.87954 19.25 5.70834 19.25L4.66668 20.2917V21.3333H5.70834L7.79168 19.2188L9.87501 19.25V14.0417H4.66668V6.75H14.0417V8.83333H16.125V7.79167C16.125 6.96287 15.7958 6.16801 15.2097 5.58196C14.6237 4.99591 13.8288 4.66667 13 4.66667ZM5.70834 15.0833C5.98461 15.0833 6.24956 15.1931 6.44491 15.3884C6.64026 15.5838 6.75001 15.8487 6.75001 16.125C6.75001 16.4013 6.64026 16.6662 6.44491 16.8616C6.24956 17.0569 5.98461 17.1667 5.70834 17.1667C5.43208 17.1667 5.16712 17.0569 4.97177 16.8616C4.77642 16.6662 4.66668 16.4013 4.66668 16.125C4.66668 15.8487 4.77642 15.5838 4.97177 15.3884C5.16712 15.1931 5.43208 15.0833 5.70834 15.0833ZM21.9271 10.5625C21.7813 10.1458 21.3854 9.875 20.9167 9.875H13.4271C12.9479 9.875 12.5625 10.1458 12.4063 10.5625L10.9167 14.8438V20.5833C10.9167 20.9792 11.25 21.3333 11.6458 21.3333H12.2917C12.6875 21.3333 13 20.9375 13 20.5417V19.25H21.3333V20.5417C21.3333 20.9375 21.6563 21.3333 22.0521 21.3333H22.6875C23.0833 21.3333 23.4167 20.9792 23.4167 20.5833V14.8438L21.9271 10.5625ZM13.4271 10.9167H20.9167L21.9896 14.0417H12.3542L13.4271 10.9167ZM13 17.1667C12.7237 17.1667 12.4588 17.0569 12.2634 16.8616C12.0681 16.6662 11.9583 16.4013 11.9583 16.125C11.9583 15.8487 12.0681 15.5838 12.2634 15.3884C12.4588 15.1931 12.7237 15.0833 13 15.0833C13.2763 15.0833 13.5412 15.1931 13.7366 15.3884C13.9319 15.5838 14.0417 15.8487 14.0417 16.125C14.0417 16.4013 13.9319 16.6662 13.7366 16.8616C13.5412 17.0569 13.2763 17.1667 13 17.1667ZM21.3333 17.1667C21.0571 17.1667 20.7921 17.0569 20.5968 16.8616C20.4014 16.6662 20.2917 16.4013 20.2917 16.125C20.2917 15.8487 20.4014 15.5838 20.5968 15.3884C20.7921 15.1931 21.0571 15.0833 21.3333 15.0833C21.6096 15.0833 21.8746 15.1931 22.0699 15.3884C22.2653 15.5838 22.375 15.8487 22.375 16.125C22.375 16.4013 22.2653 16.6662 22.0699 16.8616C21.8746 17.0569 21.6096 17.1667 21.3333 17.1667Z" fill="#337AB7"/>
</svg>
