<svg width="25" height="26" viewBox="0 0 25 26" fill="none" xmlns="http://www.w3.org/2000/svg">
<path d="M18.2291 5.44792C18.2291 5.93138 18.0371 6.39505 17.6952 6.73691C17.3534 7.07878 16.8897 7.27083 16.4062 7.27083C15.9228 7.27083 15.4591 7.07878 15.1172 6.73691C14.7754 6.39505 14.5833 5.93138 14.5833 5.44792C14.5833 4.96445 14.7754 4.50078 15.1172 4.15892C15.4591 3.81706 15.9228 3.625 16.4062 3.625C16.8897 3.625 17.3534 3.81706 17.6952 4.15892C18.0371 4.50078 18.2291 4.96445 18.2291 5.44792Z" fill="#337AB7"/>
<path fill-rule="evenodd" clip-rule="evenodd" d="M16.4063 6.22917C16.6135 6.22917 16.8122 6.14686 16.9587 6.00034C17.1052 5.85383 17.1875 5.65512 17.1875 5.44792C17.1875 5.24072 17.1052 5.042 16.9587 4.89549C16.8122 4.74898 16.6135 4.66667 16.4063 4.66667C16.1991 4.66667 16.0004 4.74898 15.8538 4.89549C15.7073 5.042 15.625 5.24072 15.625 5.44792C15.625 5.65512 15.7073 5.85383 15.8538 6.00034C16.0004 6.14686 16.1991 6.22917 16.4063 6.22917ZM16.4063 7.27083C16.6457 7.27083 16.8827 7.22368 17.1039 7.13207C17.325 7.04046 17.526 6.90619 17.6953 6.73691C17.8645 6.56764 17.9988 6.36668 18.0904 6.14552C18.182 5.92435 18.2292 5.68731 18.2292 5.44792C18.2292 5.20853 18.182 4.97148 18.0904 4.75032C17.9988 4.52915 17.8645 4.32819 17.6953 4.15892C17.526 3.98965 17.325 3.85537 17.1039 3.76376C16.8827 3.67215 16.6457 3.625 16.4063 3.625C15.9228 3.625 15.4591 3.81706 15.1173 4.15892C14.7754 4.50078 14.5834 4.96445 14.5834 5.44792C14.5834 5.93138 14.7754 6.39505 15.1173 6.73691C15.4591 7.07878 15.9228 7.27083 16.4063 7.27083ZM9.89585 8.83333C9.61959 8.83333 9.35463 8.94308 9.15928 9.13843C8.96393 9.33378 8.85419 9.59873 8.85419 9.875C8.85419 10.1513 8.96393 10.4162 9.15928 10.6116C9.35463 10.8069 9.61959 10.9167 9.89585 10.9167H13.5417V21.3333C13.5417 21.6096 13.6514 21.8746 13.8468 22.0699C14.0421 22.2653 14.3071 22.375 14.5834 22.375C14.8596 22.375 15.1246 22.2653 15.3199 22.0699C15.5153 21.8746 15.625 21.6096 15.625 21.3333V16.6458H17.1875V21.3333C17.1875 21.6096 17.2973 21.8746 17.4926 22.0699C17.688 22.2653 17.9529 22.375 18.2292 22.375C18.5055 22.375 18.7704 22.2653 18.9658 22.0699C19.1611 21.8746 19.2709 21.6096 19.2709 21.3333V15.0401C20.0417 14.9074 20.7348 14.4906 21.2134 13.8718C21.6919 13.2531 21.9211 12.4774 21.8557 11.698C21.7903 10.9185 21.435 10.1919 20.8601 9.66154C20.2851 9.1312 19.5322 8.83569 18.75 8.83333H9.89585ZM20.3125 11.9583C20.3125 11.6821 20.2028 11.4171 20.0074 11.2218C19.8121 11.0264 19.5471 10.9167 19.2709 10.9167V13C19.5471 13 19.8121 12.8903 20.0074 12.6949C20.2028 12.4996 20.3125 12.2346 20.3125 11.9583Z" fill="#337AB7"/>
<path fill-rule="evenodd" clip-rule="evenodd" d="M3.125 17.1667C3.125 16.8904 3.23475 16.6254 3.4301 16.4301C3.62545 16.2347 3.8904 16.125 4.16667 16.125H10.9375C11.2138 16.125 11.4787 16.2347 11.6741 16.4301C11.8694 16.6254 11.9792 16.8904 11.9792 17.1667V21.3333C11.9792 21.6096 11.8694 21.8746 11.6741 22.0699C11.4787 22.2653 11.2138 22.375 10.9375 22.375H4.16667C3.8904 22.375 3.62545 22.2653 3.4301 22.0699C3.23475 21.8746 3.125 21.6096 3.125 21.3333V17.1667ZM5.20833 20.8125V17.6875H6.25V20.8125H5.20833ZM8.85417 17.6875V20.8125H9.89583V17.6875H8.85417ZM5.72917 15.0833C5.72917 14.8071 5.83891 14.5421 6.03426 14.3468C6.22961 14.1514 6.49457 14.0417 6.77083 14.0417H8.33333C8.6096 14.0417 8.87455 14.1514 9.0699 14.3468C9.26525 14.5421 9.375 14.8071 9.375 15.0833V16.125H8.33333V15.0833H6.77083V16.125H5.72917V15.0833Z" fill="#337AB7"/>
</svg>
