<svg width="26" height="26" viewBox="0 0 26 26" fill="none" xmlns="http://www.w3.org/2000/svg">
<path d="M5.70833 22.375C5.13542 22.375 4.64514 22.1712 4.2375 21.7635C3.82986 21.3559 3.62569 20.8653 3.625 20.2917V5.70833C3.625 5.13542 3.82917 4.64514 4.2375 4.2375C4.64583 3.82986 5.13611 3.62569 5.70833 3.625H20.2917C20.8646 3.625 21.3552 3.82917 21.7635 4.2375C22.1719 4.64583 22.3757 5.13611 22.375 5.70833V20.2917C22.375 20.8646 22.1712 21.3552 21.7635 21.7635C21.3559 22.1719 20.8653 22.3757 20.2917 22.375H5.70833ZM7.79167 18.2083H15.0833V16.125H7.79167V18.2083ZM7.79167 14.0417H18.2083V11.9583H7.79167V14.0417ZM7.79167 9.875H18.2083V7.79167H7.79167V9.875Z" fill="#337AB7"/>
</svg>
