<svg width="26" height="26" viewBox="0 0 26 26" fill="none" xmlns="http://www.w3.org/2000/svg">
<path d="M17.1667 14.0417H14.0417C13.4687 14.0417 13 14.5104 13 15.0833V18.2083C13 18.7812 13.4687 19.25 14.0417 19.25H17.1667C17.7396 19.25 18.2083 18.7812 18.2083 18.2083V15.0833C18.2083 14.5104 17.7396 14.0417 17.1667 14.0417ZM17.1667 3.625V4.66667H8.83333V3.625C8.83333 3.05208 8.36458 2.58333 7.79167 2.58333C7.21875 2.58333 6.75 3.05208 6.75 3.625V4.66667H5.70833C4.55208 4.66667 3.63542 5.60417 3.63542 6.75L3.625 21.3333C3.625 21.8859 3.84449 22.4158 4.23519 22.8065C4.62589 23.1972 5.1558 23.4167 5.70833 23.4167H20.2917C21.4375 23.4167 22.375 22.4792 22.375 21.3333V6.75C22.375 5.60417 21.4375 4.66667 20.2917 4.66667H19.25V3.625C19.25 3.05208 18.7812 2.58333 18.2083 2.58333C17.6354 2.58333 17.1667 3.05208 17.1667 3.625ZM19.25 21.3333H6.75C6.17708 21.3333 5.70833 20.8646 5.70833 20.2917V9.875H20.2917V20.2917C20.2917 20.8646 19.8229 21.3333 19.25 21.3333Z" fill="#337AB7"/>
</svg>
