<svg width="26" height="26" viewBox="0 0 26 26" fill="none" xmlns="http://www.w3.org/2000/svg">
<path d="M13 2.0625C10.7216 2.06519 8.53734 2.97146 6.92628 4.58252C5.31522 6.19358 4.40895 8.37787 4.40626 10.6562C4.40353 12.5181 5.01171 14.3295 6.13751 15.8125C6.13751 15.8125 6.37188 16.1211 6.41017 16.1656L13 23.9375L19.593 16.1617C19.6274 16.1203 19.8625 15.8125 19.8625 15.8125L19.8633 15.8102C20.9885 14.3278 21.5964 12.5173 21.5938 10.6562C21.5911 8.37787 20.6848 6.19358 19.0737 4.58252C17.4627 2.97146 15.2784 2.06519 13 2.0625ZM13 13.7812C12.3819 13.7812 11.7778 13.598 11.2639 13.2546C10.7499 12.9112 10.3494 12.4232 10.1129 11.8521C9.87636 11.2811 9.81448 10.6528 9.93505 10.0466C10.0556 9.4404 10.3533 8.88358 10.7903 8.44654C11.2273 8.0095 11.7842 7.71187 12.3904 7.5913C12.9965 7.47072 13.6249 7.5326 14.1959 7.76913C14.7669 8.00565 15.255 8.40619 15.5984 8.92009C15.9417 9.434 16.125 10.0382 16.125 10.6562C16.124 11.4847 15.7944 12.279 15.2086 12.8648C14.6227 13.4506 13.8285 13.7802 13 13.7812Z" fill="white"/>
</svg>
