<svg width="26" height="26" viewBox="0 0 26 26" fill="none" xmlns="http://www.w3.org/2000/svg">
<path d="M7.79166 14.0417C9.52082 14.0417 10.9167 12.6458 10.9167 10.9167C10.9167 9.1875 9.52082 7.79167 7.79166 7.79167C6.06249 7.79167 4.66666 9.1875 4.66666 10.9167C4.66666 12.6458 6.06249 14.0417 7.79166 14.0417ZM20.2917 7.79167H14.0417C12.8958 7.79167 11.9583 8.72917 11.9583 9.875V15.0833H3.62499V6.75C3.62499 6.17708 3.15624 5.70833 2.58332 5.70833C2.01041 5.70833 1.54166 6.17708 1.54166 6.75V20.2917C1.54166 20.8646 2.01041 21.3333 2.58332 21.3333C3.15624 21.3333 3.62499 20.8646 3.62499 20.2917V18.2083H22.375V20.2917C22.375 20.8646 22.8437 21.3333 23.4167 21.3333C23.9896 21.3333 24.4583 20.8646 24.4583 20.2917V11.9583C24.4583 9.65625 22.5937 7.79167 20.2917 7.79167Z" fill="#337AB7"/>
</svg>
