<svg width="26" height="26" viewBox="0 0 26 26" fill="none" xmlns="http://www.w3.org/2000/svg">
<path d="M19.25 4.66667H18.2083V3.625C18.2083 3.34873 18.0986 3.08378 17.9032 2.88843C17.7079 2.69308 17.4429 2.58333 17.1667 2.58333C16.8904 2.58333 16.6254 2.69308 16.4301 2.88843C16.2347 3.08378 16.125 3.34873 16.125 3.625V4.66667H9.875V3.625C9.875 3.34873 9.76525 3.08378 9.5699 2.88843C9.37455 2.69308 9.1096 2.58333 8.83333 2.58333C8.55707 2.58333 8.29211 2.69308 8.09676 2.88843C7.90141 3.08378 7.79167 3.34873 7.79167 3.625V4.66667H6.75C5.9212 4.66667 5.12634 4.99591 4.54029 5.58196C3.95424 6.16801 3.625 6.96287 3.625 7.79167V20.2917C3.625 21.1205 3.95424 21.9153 4.54029 22.5014C5.12634 23.0874 5.9212 23.4167 6.75 23.4167H19.25C20.0788 23.4167 20.8737 23.0874 21.4597 22.5014C22.0458 21.9153 22.375 21.1205 22.375 20.2917V7.79167C22.375 6.96287 22.0458 6.16801 21.4597 5.58196C20.8737 4.99591 20.0788 4.66667 19.25 4.66667ZM8.83333 18.2083C8.62731 18.2083 8.42592 18.1472 8.25461 18.0328C8.08331 17.9183 7.9498 17.7556 7.87096 17.5653C7.79212 17.375 7.77149 17.1655 7.81168 16.9634C7.85187 16.7614 7.95108 16.5758 8.09676 16.4301C8.24244 16.2844 8.42805 16.1852 8.63011 16.145C8.83218 16.1048 9.04162 16.1255 9.23196 16.2043C9.4223 16.2831 9.58499 16.4166 9.69945 16.5879C9.81391 16.7593 9.875 16.9606 9.875 17.1667C9.875 17.4429 9.76525 17.7079 9.5699 17.9032C9.37455 18.0986 9.1096 18.2083 8.83333 18.2083ZM17.1667 18.2083H13C12.7237 18.2083 12.4588 18.0986 12.2634 17.9032C12.0681 17.7079 11.9583 17.4429 11.9583 17.1667C11.9583 16.8904 12.0681 16.6254 12.2634 16.4301C12.4588 16.2347 12.7237 16.125 13 16.125H17.1667C17.4429 16.125 17.7079 16.2347 17.9032 16.4301C18.0986 16.6254 18.2083 16.8904 18.2083 17.1667C18.2083 17.4429 18.0986 17.7079 17.9032 17.9032C17.7079 18.0986 17.4429 18.2083 17.1667 18.2083ZM20.2917 11.9583H5.70833V7.79167C5.70833 7.5154 5.81808 7.25045 6.01343 7.0551C6.20878 6.85975 6.47373 6.75 6.75 6.75H7.79167V7.79167C7.79167 8.06793 7.90141 8.33289 8.09676 8.52824C8.29211 8.72359 8.55707 8.83333 8.83333 8.83333C9.1096 8.83333 9.37455 8.72359 9.5699 8.52824C9.76525 8.33289 9.875 8.06793 9.875 7.79167V6.75H16.125V7.79167C16.125 8.06793 16.2347 8.33289 16.4301 8.52824C16.6254 8.72359 16.8904 8.83333 17.1667 8.83333C17.4429 8.83333 17.7079 8.72359 17.9032 8.52824C18.0986 8.33289 18.2083 8.06793 18.2083 7.79167V6.75H19.25C19.5263 6.75 19.7912 6.85975 19.9866 7.0551C20.1819 7.25045 20.2917 7.5154 20.2917 7.79167V11.9583Z" fill="white"/>
</svg>
