<svg width="26" height="24" viewBox="0 0 26 24" fill="none" xmlns="http://www.w3.org/2000/svg">
<g clip-path="url(#clip0_8_6)">
<path d="M24.8056 3.66667C25.1892 3.66667 25.5 3.3559 25.5 2.97222V1.58333C25.5 1.19965 25.1892 0.888889 24.8056 0.888889H1.19444C0.810764 0.888889 0.5 1.19965 0.5 1.58333V2.97222C0.5 3.3559 0.810764 3.66667 1.19444 3.66667H1.88802V20.3333H1.19444C0.810764 20.3333 0.5 20.6441 0.5 21.0278V22.4167C0.5 22.8003 0.810764 23.1111 1.19444 23.1111H11.6111V19.6389C11.6111 19.2569 11.9236 18.9444 12.3056 18.9444H13.6944C14.0764 18.9444 14.3889 19.2569 14.3889 19.6389V23.1111H24.8056C25.1892 23.1111 25.5 22.8003 25.5 22.4167V21.0278C25.5 20.6441 25.1892 20.3333 24.8056 20.3333H24.1111V3.66667H24.8056ZM11.6111 5.61111C11.6111 5.33333 11.8889 5.05556 12.1667 5.05556H13.8333C14.1111 5.05556 14.3889 5.33333 14.3889 5.61111V7.27778C14.3889 7.55556 14.1111 7.83333 13.8333 7.83333H12.1667C11.8889 7.83333 11.6111 7.55556 11.6111 7.27778V5.61111ZM11.6111 9.77778C11.6111 9.5 11.8889 9.22222 12.1667 9.22222H13.8333C14.1111 9.22222 14.3889 9.5 14.3889 9.77778V11.4444C14.3889 11.7222 14.1111 12 13.8333 12H12.1667C11.8889 12 11.6111 11.7222 11.6111 11.4444V9.77778ZM6.05556 5.61111C6.05556 5.33333 6.33333 5.05556 6.61111 5.05556H8.27778C8.55556 5.05556 8.83333 5.33333 8.83333 5.61111V7.27778C8.83333 7.55556 8.55556 7.83333 8.27778 7.83333H6.61111C6.33333 7.83333 6.05556 7.55556 6.05556 7.27778V5.61111ZM8.27778 12H6.61111C6.33333 12 6.05556 11.7222 6.05556 11.4444V9.77778C6.05556 9.5 6.33333 9.22222 6.61111 9.22222H8.27778C8.55556 9.22222 8.83333 9.5 8.83333 9.77778V11.4444C8.83333 11.7222 8.55556 12 8.27778 12ZM8.83333 17.5556C8.83333 15.2543 10.6988 13.3889 13 13.3889C15.3012 13.3889 17.1667 15.2543 17.1667 17.5556H8.83333ZM19.9444 11.4444C19.9444 11.7222 19.6667 12 19.3889 12H17.7222C17.4444 12 17.1667 11.7222 17.1667 11.4444V9.77778C17.1667 9.5 17.4444 9.22222 17.7222 9.22222H19.3889C19.6667 9.22222 19.9444 9.5 19.9444 9.77778V11.4444ZM19.9444 7.27778C19.9444 7.55556 19.6667 7.83333 19.3889 7.83333H17.7222C17.4444 7.83333 17.1667 7.55556 17.1667 7.27778V5.61111C17.1667 5.33333 17.4444 5.05556 17.7222 5.05556H19.3889C19.6667 5.05556 19.9444 5.33333 19.9444 5.61111V7.27778Z" fill="#337AB7"/>
</g>
<defs>
<clipPath id="clip0_8_6">
<rect width="25" height="22.2222" fill="white" transform="translate(0.5 0.888889)"/>
</clipPath>
</defs>
</svg>
