<svg width="25" height="25" viewBox="0 0 25 25" fill="none" xmlns="http://www.w3.org/2000/svg">
<path d="M22.5 11.6667C22.5014 13.2704 22.1164 14.8509 21.3778 16.2744C20.6392 17.698 19.5687 18.9227 18.2567 19.845L20 23.3333H5L6.74333 19.845C5.33917 18.8564 4.21324 17.5229 3.474 15.973C2.73476 14.423 2.40713 12.7087 2.52266 10.9954C2.63819 9.28203 3.19299 7.6273 4.13362 6.19059C5.07426 4.75388 6.36902 3.5836 7.89318 2.7925C9.41735 2.0014 11.1196 1.61613 12.8358 1.6738C14.5521 1.73147 16.2246 2.23014 17.6922 3.12177C19.1599 4.0134 20.3731 5.26795 21.2152 6.76457C22.0573 8.26118 22.4997 9.94942 22.5 11.6667ZM20.4967 11.875H14.9917C14.9467 12.4083 14.735 12.895 14.4083 13.2817L18.3017 17.175C19.6657 15.7419 20.448 13.8528 20.4967 11.875ZM18.0083 17.4683L14.115 13.575C13.8839 13.7712 13.619 13.9237 13.3333 14.025V19.625C15.0873 19.4428 16.7314 18.6844 18.0083 17.4683ZM10.0083 11.875H4.50333C4.55196 13.8528 5.33433 15.7419 6.69833 17.175L10.5917 13.2817C10.2551 12.8852 10.0511 12.3933 10.0083 11.875ZM6.99167 17.4683C8.26887 18.6838 9.91293 19.4416 11.6667 19.6233V14.0233C11.3811 13.9225 11.1162 13.7706 10.885 13.575L6.99167 17.4683ZM20.4967 11.4583C20.448 9.4805 19.6657 7.59141 18.3017 6.15833L14.4083 10.0517C14.735 10.4383 14.9467 10.925 14.9917 11.4583H20.4967ZM18.0083 5.865C16.5753 4.501 14.6862 3.71863 12.7083 3.67V9.175C13.2417 9.22 13.7283 9.43167 14.115 9.75833L18.0083 5.865ZM12.2917 9.175V3.67C10.3138 3.71863 8.42474 4.501 6.99167 5.865L10.885 9.75833C11.2717 9.43167 11.7583 9.22 12.2917 9.175ZM10.5917 10.0517L6.69833 6.15833C5.33433 7.59141 4.55196 9.4805 4.50333 11.4583H10.0083C10.0533 10.925 10.265 10.4383 10.5917 10.0517Z" fill="#337AB7"/>
</svg>
