<svg width="25" height="25" viewBox="0 0 25 25" fill="none" xmlns="http://www.w3.org/2000/svg">
<path fill-rule="evenodd" clip-rule="evenodd" d="M4.82448 3.125C4.6276 3.125 4.45208 3.26146 4.38438 3.46667L3.18229 7.11823C3.14434 7.23371 3.125 7.35449 3.125 7.47604V8.92865C3.125 9.75 3.72448 10.4167 4.46406 10.4167C5.20365 10.4167 5.80365 9.75 5.80365 8.92865C5.80365 9.75052 6.40312 10.4167 7.14271 10.4167C7.88229 10.4167 8.48229 9.75 8.48229 8.92865C8.48229 9.75052 9.08177 10.4167 9.82135 10.4167C10.5609 10.4167 11.1599 9.75104 11.1609 8.92969C11.1609 9.75104 11.7604 10.4167 12.5 10.4167C13.2396 10.4167 13.8391 9.75 13.8391 8.92865C13.8391 9.75052 14.4391 10.4167 15.1786 10.4167C15.9182 10.4167 16.5172 9.75104 16.5177 8.92969C16.5182 9.75104 17.1177 10.4167 17.8573 10.4167C18.5969 10.4167 19.1964 9.75 19.1964 8.92865C19.1964 9.75052 19.7958 10.4167 20.5359 10.4167C21.2755 10.4167 21.875 9.75 21.875 8.92865V7.47604C21.875 7.35449 21.8557 7.23371 21.8177 7.11823L20.6156 3.46719C20.5479 3.26146 20.3724 3.125 20.1755 3.125H4.82448Z" fill="#337AB7"/>
<path fill-rule="evenodd" clip-rule="evenodd" d="M5.20834 11.0573V15.1042H3.90626C3.83719 15.1042 3.77096 15.1316 3.72212 15.1804C3.67328 15.2293 3.64584 15.2955 3.64584 15.3646V15.8854C3.64584 15.9545 3.67328 16.0207 3.72212 16.0696C3.77096 16.1184 3.83719 16.1458 3.90626 16.1458H21.0938C21.1628 16.1458 21.2291 16.1184 21.2779 16.0696C21.3267 16.0207 21.3542 15.9545 21.3542 15.8854V15.3646C21.3542 15.2955 21.3267 15.2293 21.2779 15.1804C21.2291 15.1316 21.1628 15.1042 21.0938 15.1042H19.7917V11.0573C19.5737 10.9704 19.3723 10.8465 19.1964 10.6911C19.0613 10.8102 18.9113 10.9111 18.75 10.9911V15.1042H6.25001V10.9911C6.08875 10.9111 5.93868 10.8102 5.80366 10.6911C5.62866 10.8448 5.42866 10.9698 5.20834 11.0573ZM18.75 10.038C18.7943 9.99375 18.8359 9.94635 18.875 9.89583H18.75V10.038ZM19.5177 9.89583C19.5965 9.99785 19.6886 10.0888 19.7917 10.1661V9.89583H19.5177ZM5.20834 10.1661C5.31193 10.0894 5.40416 9.99838 5.4823 9.89583H5.20834V10.1661ZM6.12501 9.89583H6.25001V10.038C6.20527 9.99342 6.16351 9.94592 6.12501 9.89583ZM4.42709 17.1875C4.35803 17.1875 4.29179 17.2149 4.24295 17.2638C4.19411 17.3126 4.16668 17.3788 4.16668 17.4479V21.3542C4.16668 21.4923 4.22155 21.6248 4.31923 21.7225C4.4169 21.8201 4.54938 21.875 4.68751 21.875H20.3125C20.4506 21.875 20.5831 21.8201 20.6808 21.7225C20.7785 21.6248 20.8333 21.4923 20.8333 21.3542V17.4479C20.8333 17.3788 20.8059 17.3126 20.7571 17.2638C20.7082 17.2149 20.642 17.1875 20.5729 17.1875H4.42709Z" fill="#337AB7"/>
<path d="M7.29166 13.8021C7.29166 13.733 7.31909 13.6668 7.36793 13.6179C7.41677 13.5691 7.48301 13.5417 7.55207 13.5417H9.11457C9.18364 13.5417 9.24988 13.5691 9.29872 13.6179C9.34755 13.6668 9.37499 13.733 9.37499 13.8021V14.8438C9.37499 14.9128 9.34755 14.9791 9.29872 15.0279C9.24988 15.0767 9.18364 15.1042 9.11457 15.1042H7.55207C7.48301 15.1042 7.41677 15.0767 7.36793 15.0279C7.31909 14.9791 7.29166 14.9128 7.29166 14.8438V13.8021Z" fill="#337AB7"/>
<path d="M8.33334 14.3229C8.33334 14.2539 8.36078 14.1876 8.40962 14.1388C8.45846 14.0899 8.52469 14.0625 8.59376 14.0625H10.1563C10.2253 14.0625 10.2916 14.0899 10.3404 14.1388C10.3892 14.1876 10.4167 14.2539 10.4167 14.3229V14.8438C10.4167 14.9128 10.3892 14.9791 10.3404 15.0279C10.2916 15.0767 10.2253 15.1042 10.1563 15.1042H8.59376C8.52469 15.1042 8.45846 15.0767 8.40962 15.0279C8.36078 14.9791 8.33334 14.9128 8.33334 14.8438V14.3229ZM12.5 14.3229C12.5 14.5301 12.4177 14.7288 12.2712 14.8753C12.1247 15.0219 11.926 15.1042 11.7188 15.1042C11.5116 15.1042 11.3128 15.0219 11.1663 14.8753C11.0198 14.7288 10.9375 14.5301 10.9375 14.3229C10.9375 14.1157 11.0198 13.917 11.1663 13.7705C11.3128 13.624 11.5116 13.5417 11.7188 13.5417C11.926 13.5417 12.1247 13.624 12.2712 13.7705C12.4177 13.917 12.5 14.1157 12.5 14.3229Z" fill="#337AB7"/>
</svg>
